# xmcd
#
# Track frame offsets: 
#        182
#        18082
#        38095
#        59015
#        81520
#        100150
#        120867
#        143945
#        162615
#        180525
#        198980
#
# Disc length: 2915 seconds
#
# Revision: 1
# Processed by: cddbd v1.5.2PL0 Copyright (c) Steve Scherf et al.
# Submitted via: ExactAudioCopyFreeDBPlugin 1.0
#
DISCID=900b610b
DTITLE=Alvin Lee - Zoom
DYEAR=1992
DGENRE=Rock
TTITLE0=A Little Bit Of love
TTITLE1=Jenny Jenny
TTITLE2=Remember Me
TTITLE3=Anything for you
TTITLE4=The price of this love
TTITLE5=Real life blues
TTITLE6=It don´t come easy
TTITLE7=Lost in love
TTITLE8=Wake up moma
TTITLE9=Moving the blues
TTITLE10=Use that power
EXTD=
EXTT0=
EXTT1=
EXTT2=
EXTT3=
EXTT4=
EXTT5=
EXTT6=
EXTT7=
EXTT8=
EXTT9=
EXTT10=
PLAYORDER=
